<svg width="43" height="41" viewBox="0 0 43 41" fill="none" xmlns="http://www.w3.org/2000/svg">
<g clip-path="url(#clip0_3_26)">
<path fill-rule="evenodd" clip-rule="evenodd" d="M21.4127 0.444427C9.87615 0.444427 0.550003 9.65353 0.550003 21.0464C0.550003 30.1534 6.52558 37.8623 14.8153 40.5907C15.8517 40.7958 16.2314 40.1474 16.2314 39.602C16.2314 39.1243 16.1972 37.4872 16.1972 35.7814C10.3937 37.0096 9.1852 33.3255 9.1852 33.3255C8.25254 30.9379 6.87063 30.3242 6.87063 30.3242C4.97116 29.0621 7.009 29.0621 7.009 29.0621C9.11601 29.1986 10.2216 31.1769 10.2216 31.1769C12.0865 34.3147 15.0916 33.4281 16.3005 32.8822C16.4731 31.5519 17.0261 30.631 17.6133 30.1195C12.9846 29.6419 8.1146 27.8683 8.1146 19.9548C8.1146 17.7035 8.94306 15.8617 10.2558 14.4293C10.0487 13.9178 9.32313 11.8026 10.4633 8.97164C10.4633 8.97164 12.2249 8.42579 16.1968 11.0864C17.8973 10.6354 19.651 10.406 21.4127 10.4041C23.1742 10.4041 24.9699 10.6431 26.6281 11.0864C30.6004 8.42579 32.362 8.97164 32.362 8.97164C33.5022 11.8026 32.7762 13.9178 32.5691 14.4293C33.9164 15.8617 34.7107 17.7035 34.7107 19.9548C34.7107 27.8683 29.8407 29.6076 25.1774 30.1195C25.9376 30.7675 26.5935 31.9952 26.5935 33.9396C26.5935 36.7023 26.5594 38.9196 26.5594 39.6015C26.5594 40.1474 26.9394 40.7958 27.9754 40.5911C36.2651 37.8619 42.2407 30.1534 42.2407 21.0464C42.2749 9.65353 32.9146 0.444427 21.4127 0.444427Z" fill="white"/>
</g>
<defs>
<clipPath id="clip0_3_26">
<rect width="41.85" height="40.1852" fill="white" transform="translate(0.550003 0.444427)"/>
</clipPath>
</defs>
</svg>
